<?xml version="1.0" encoding="UTF-8" standalone="no"?>
<!DOCTYPE svg PUBLIC "-//W3C//DTD SVG 1.1//EN" "http://www.w3.org/Graphics/SVG/1.1/DTD/svg11.dtd">
<svg width="100%" height="100%" viewBox="0 0 457 20" version="1.1" xmlns="http://www.w3.org/2000/svg" xmlns:xlink="http://www.w3.org/1999/xlink" xml:space="preserve" xmlns:serif="http://www.serif.com/" style="fill-rule:evenodd;clip-rule:evenodd;stroke-linejoin:round;stroke-miterlimit:2;">
    <g id="Artboard1" transform="matrix(0.993973,0,0,0.915008,1.41812,-18.5795)">
        <rect x="-1.427" y="20.305" width="459.068" height="21.832" style="fill:none;"/>
        <g transform="matrix(0.214054,0,0,0.0729491,105.341,-81.3956)">
            <clipPath id="_clip1">
                <rect x="-488.825" y="1425.64" width="2128.46" height="252.536"/>
            </clipPath>
            <g clip-path="url(#_clip1)">
                <g transform="matrix(4.70005,0,0,14.9815,1841.7,-19932.5)">
                    <g transform="matrix(20.8333,0,0,20.8333,-496.798,1440.97)">
                        <path d="M0.448,-0.373L0.448,-0.259L0.703,-0.259C0.669,-0.157 0.591,-0.108 0.451,-0.108C0.297,-0.108 0.181,-0.196 0.181,-0.368C0.181,-0.469 0.235,-0.623 0.463,-0.623C0.63,-0.623 0.669,-0.537 0.686,-0.5L0.831,-0.5C0.796,-0.683 0.613,-0.745 0.446,-0.745C0.156,-0.745 0.039,-0.556 0.039,-0.362C0.039,-0.073 0.264,0.018 0.45,0.018C0.591,0.018 0.667,-0.031 0.722,-0.067L0.75,0.008L0.836,0.008L0.836,-0.373L0.448,-0.373Z" style="fill-rule:nonzero;"/>
                    </g>
                    <g transform="matrix(20.8333,0,0,20.8333,-478.277,1440.97)">
                        <path d="M0.086,-0L0.755,-0L0.755,-0.126L0.228,-0.126L0.228,-0.727L0.086,-0.727L0.086,-0Z" style="fill-rule:nonzero;"/>
                    </g>
                    <g transform="matrix(20.8333,0,0,20.8333,-462.069,1440.97)">
                        <path d="M0.472,-0.104C0.336,-0.104 0.181,-0.16 0.181,-0.366C0.181,-0.541 0.306,-0.623 0.472,-0.623C0.638,-0.623 0.763,-0.541 0.763,-0.366C0.763,-0.16 0.608,-0.104 0.472,-0.104ZM0.039,-0.358C0.039,-0.207 0.128,0.018 0.472,0.018C0.816,0.018 0.905,-0.207 0.905,-0.358C0.905,-0.557 0.792,-0.745 0.472,-0.745C0.152,-0.745 0.039,-0.557 0.039,-0.358Z" style="fill-rule:nonzero;"/>
                    </g>
                    <g transform="matrix(20.8333,0,0,20.8333,-442.402,1440.97)">
                        <path d="M0.086,-0L0.551,-0C0.728,-0 0.837,-0.074 0.837,-0.211C0.837,-0.306 0.776,-0.368 0.725,-0.39C0.764,-0.415 0.809,-0.449 0.809,-0.541C0.809,-0.679 0.695,-0.727 0.524,-0.727L0.086,-0.727L0.086,-0ZM0.228,-0.118L0.228,-0.322L0.537,-0.322C0.633,-0.322 0.695,-0.298 0.695,-0.222C0.695,-0.136 0.627,-0.118 0.537,-0.118L0.228,-0.118ZM0.228,-0.44L0.228,-0.609L0.533,-0.609C0.626,-0.609 0.667,-0.586 0.667,-0.524C0.667,-0.463 0.626,-0.44 0.533,-0.44L0.228,-0.44Z" style="fill-rule:nonzero;"/>
                    </g>
                    <g transform="matrix(20.8333,0,0,20.8333,-423.881,1440.97)">
                        <path d="M0.295,-0.289L0.447,-0.613L0.599,-0.289L0.295,-0.289ZM0.008,-0L0.159,-0L0.236,-0.167L0.655,-0.167L0.731,-0L0.881,-0L0.528,-0.727L0.366,-0.727L0.008,-0Z" style="fill-rule:nonzero;"/>
                    </g>
                    <g transform="matrix(20.8333,0,0,20.8333,-405.36,1440.97)">
                        <path d="M0.086,-0L0.755,-0L0.755,-0.126L0.228,-0.126L0.228,-0.727L0.086,-0.727L0.086,-0Z" style="fill-rule:nonzero;"/>
                    </g>
                    <g transform="matrix(20.8333,0,0,20.8333,-381.631,1440.97)">
                        <path d="M0.086,-0L0.228,-0L0.228,-0.282L0.491,-0.282C0.614,-0.282 0.816,-0.282 0.816,-0.504C0.816,-0.727 0.614,-0.727 0.491,-0.727L0.086,-0.727L0.086,-0ZM0.228,-0.404L0.228,-0.605L0.522,-0.605C0.603,-0.605 0.674,-0.598 0.674,-0.505C0.674,-0.411 0.603,-0.404 0.522,-0.404L0.228,-0.404Z" style="fill-rule:nonzero;"/>
                    </g>
                    <g transform="matrix(20.8333,0,0,20.8333,-364.277,1440.97)">
                        <path d="M0.472,-0.104C0.336,-0.104 0.181,-0.16 0.181,-0.366C0.181,-0.541 0.306,-0.623 0.472,-0.623C0.638,-0.623 0.763,-0.541 0.763,-0.366C0.763,-0.16 0.608,-0.104 0.472,-0.104ZM0.039,-0.358C0.039,-0.207 0.128,0.018 0.472,0.018C0.816,0.018 0.905,-0.207 0.905,-0.358C0.905,-0.557 0.792,-0.745 0.472,-0.745C0.152,-0.745 0.039,-0.557 0.039,-0.358Z" style="fill-rule:nonzero;"/>
                    </g>
                    <g transform="matrix(20.8333,0,0,20.8333,-344.61,1440.97)">
                        <path d="M0.786,-0.55C0.768,-0.6 0.714,-0.745 0.401,-0.745C0.345,-0.745 0.062,-0.745 0.062,-0.527C0.062,-0.416 0.156,-0.343 0.324,-0.32L0.498,-0.296C0.602,-0.283 0.656,-0.252 0.656,-0.205C0.656,-0.142 0.56,-0.104 0.444,-0.104C0.252,-0.104 0.198,-0.181 0.172,-0.234L0.035,-0.191C0.052,-0.136 0.128,0.018 0.44,0.018C0.634,0.018 0.798,-0.046 0.798,-0.218C0.798,-0.34 0.702,-0.403 0.539,-0.428L0.367,-0.454C0.222,-0.472 0.204,-0.505 0.204,-0.536C0.204,-0.603 0.301,-0.627 0.397,-0.627C0.57,-0.627 0.629,-0.571 0.652,-0.506L0.786,-0.55Z" style="fill-rule:nonzero;"/>
                    </g>
                    <g transform="matrix(20.8333,0,0,20.8333,-327.256,1440.97)">
                        <path d="M0.345,-0L0.487,-0L0.487,-0.605L0.812,-0.605L0.812,-0.727L0.02,-0.727L0.02,-0.605L0.345,-0.605L0.345,-0Z" style="fill-rule:nonzero;"/>
                    </g>
                    <g transform="matrix(20.8333,0,0,20.8333,-309.923,1440.97)">
                        <path d="M0.086,-0L0.75,-0L0.75,-0.122L0.228,-0.122L0.228,-0.314L0.667,-0.314L0.667,-0.436L0.228,-0.436L0.228,-0.605L0.738,-0.605L0.738,-0.727L0.086,-0.727L0.086,-0Z" style="fill-rule:nonzero;"/>
                    </g>
                    <g transform="matrix(20.8333,0,0,20.8333,-293.714,1440.97)">
                        <path d="M0.228,-0.404L0.228,-0.609L0.502,-0.609C0.618,-0.609 0.677,-0.592 0.677,-0.507C0.677,-0.421 0.618,-0.404 0.502,-0.404L0.228,-0.404ZM0.086,-0L0.228,-0L0.228,-0.286L0.453,-0.286L0.664,-0L0.839,-0L0.616,-0.296C0.723,-0.302 0.819,-0.376 0.819,-0.51C0.819,-0.688 0.695,-0.727 0.523,-0.727L0.086,-0.727L0.086,-0Z" style="fill-rule:nonzero;"/>
                    </g>
                    <g transform="matrix(20.8333,0,0,20.8333,-260.152,1440.97)">
                        <path d="M0.068,-0.364C0.068,-0.263 0.149,-0.182 0.25,-0.182C0.351,-0.182 0.432,-0.263 0.432,-0.364C0.432,-0.465 0.351,-0.546 0.25,-0.546C0.149,-0.546 0.068,-0.465 0.068,-0.364Z" style="fill-rule:nonzero;"/>
                    </g>
                    <g transform="matrix(20.8333,0,0,20.8333,-234.694,1440.97)">
                        <path d="M0.086,-0L0.222,-0L0.222,-0.544L0.728,-0L0.858,-0L0.858,-0.727L0.722,-0.727L0.722,-0.202L0.236,-0.727L0.086,-0.727L0.086,-0Z" style="fill-rule:nonzero;"/>
                    </g>
                    <g transform="matrix(20.8333,0,0,20.8333,-215.027,1440.97)">
                        <path d="M0.086,-0L0.75,-0L0.75,-0.122L0.228,-0.122L0.228,-0.314L0.667,-0.314L0.667,-0.436L0.228,-0.436L0.228,-0.605L0.738,-0.605L0.738,-0.727L0.086,-0.727L0.086,-0Z" style="fill-rule:nonzero;"/>
                    </g>
                    <g transform="matrix(20.8333,0,0,20.8333,-198.819,1440.97)">
                        <path d="M0.233,-0L0.372,-0L0.511,-0.516L0.513,-0.516L0.651,-0L0.787,-0L0.999,-0.727L0.86,-0.727L0.721,-0.228L0.719,-0.228L0.578,-0.727L0.442,-0.727L0.303,-0.227L0.301,-0.227L0.161,-0.727L0.019,-0.727L0.233,-0Z" style="fill-rule:nonzero;"/>
                    </g>
                    <g transform="matrix(20.8333,0,0,20.8333,-170.089,1440.97)">
                        <path d="M0.472,-0.104C0.336,-0.104 0.181,-0.16 0.181,-0.366C0.181,-0.541 0.306,-0.623 0.472,-0.623C0.638,-0.623 0.763,-0.541 0.763,-0.366C0.763,-0.16 0.608,-0.104 0.472,-0.104ZM0.039,-0.358C0.039,-0.207 0.128,0.018 0.472,0.018C0.816,0.018 0.905,-0.207 0.905,-0.358C0.905,-0.557 0.792,-0.745 0.472,-0.745C0.152,-0.745 0.039,-0.557 0.039,-0.358Z" style="fill-rule:nonzero;"/>
                    </g>
                    <g transform="matrix(20.8333,0,0,20.8333,-150.423,1440.97)">
                        <path d="M0.228,-0.404L0.228,-0.609L0.502,-0.609C0.618,-0.609 0.677,-0.592 0.677,-0.507C0.677,-0.421 0.618,-0.404 0.502,-0.404L0.228,-0.404ZM0.086,-0L0.228,-0L0.228,-0.286L0.453,-0.286L0.664,-0L0.839,-0L0.616,-0.296C0.723,-0.302 0.819,-0.376 0.819,-0.51C0.819,-0.688 0.695,-0.727 0.523,-0.727L0.086,-0.727L0.086,-0Z" style="fill-rule:nonzero;"/>
                    </g>
                    <g transform="matrix(20.8333,0,0,20.8333,-131.902,1440.97)">
                        <path d="M0.086,-0L0.755,-0L0.755,-0.126L0.228,-0.126L0.228,-0.727L0.086,-0.727L0.086,-0Z" style="fill-rule:nonzero;"/>
                    </g>
                    <g transform="matrix(20.8333,0,0,20.8333,-115.694,1440.97)">
                        <path d="M0.086,-0L0.75,-0L0.75,-0.122L0.228,-0.122L0.228,-0.314L0.667,-0.314L0.667,-0.436L0.228,-0.436L0.228,-0.605L0.738,-0.605L0.738,-0.727L0.086,-0.727L0.086,-0Z" style="fill-rule:nonzero;"/>
                    </g>
                    <g transform="matrix(20.8333,0,0,20.8333,-99.4852,1440.97)">
                        <path d="M0.295,-0.289L0.447,-0.613L0.599,-0.289L0.295,-0.289ZM0.008,-0L0.159,-0L0.236,-0.167L0.655,-0.167L0.731,-0L0.881,-0L0.528,-0.727L0.366,-0.727L0.008,-0Z" style="fill-rule:nonzero;"/>
                    </g>
                    <g transform="matrix(20.8333,0,0,20.8333,-80.9644,1440.97)">
                        <path d="M0.086,-0L0.222,-0L0.222,-0.544L0.728,-0L0.858,-0L0.858,-0.727L0.722,-0.727L0.722,-0.202L0.236,-0.727L0.086,-0.727L0.086,-0Z" style="fill-rule:nonzero;"/>
                    </g>
                    <g transform="matrix(20.8333,0,0,20.8333,-61.2977,1440.97)">
                        <path d="M0.786,-0.55C0.768,-0.6 0.714,-0.745 0.401,-0.745C0.345,-0.745 0.062,-0.745 0.062,-0.527C0.062,-0.416 0.156,-0.343 0.324,-0.32L0.498,-0.296C0.602,-0.283 0.656,-0.252 0.656,-0.205C0.656,-0.142 0.56,-0.104 0.444,-0.104C0.252,-0.104 0.198,-0.181 0.172,-0.234L0.035,-0.191C0.052,-0.136 0.128,0.018 0.44,0.018C0.634,0.018 0.798,-0.046 0.798,-0.218C0.798,-0.34 0.702,-0.403 0.539,-0.428L0.367,-0.454C0.222,-0.472 0.204,-0.505 0.204,-0.536C0.204,-0.603 0.301,-0.627 0.397,-0.627C0.57,-0.627 0.629,-0.571 0.652,-0.506L0.786,-0.55Z" style="fill-rule:nonzero;"/>
                    </g>
                </g>
            </g>
        </g>
    </g>
</svg>
